<svg width="87" height="114" viewBox="0 0 87 114" fill="none" xmlns="http://www.w3.org/2000/svg">
<path d="M24.6406 48.9062C25.1673 49.0545 25.6997 49.2005 26.2383 49.3418L26.2549 49.3467L26.2715 49.3506L32.5117 50.9102L32.5332 50.916L32.5557 50.9209C33.2048 51.0728 33.8365 51.2318 34.4521 51.3926C33.8312 53.9352 33.5195 56.7508 33.5195 59.8398V79.5195C33.5195 87.3595 35.5195 93.4799 39.5195 97.8799C43.5195 102.2 49.1195 104.359 56.3193 104.359C63.3593 104.359 68.5198 102.359 71.7998 98.3594C75.1596 94.3594 76.8398 89.0392 76.8398 82.3994V80.3594H58.3525C59.2009 79.4323 59.9798 78.4451 60.6865 77.3965C61.8823 75.6221 62.8189 73.7266 63.5039 71.7197H86.6797V111.68H77.5596V102.56H75.8799C74.9999 104.32 73.7592 106.04 72.1592 107.72C70.5592 109.4 68.3995 110.76 65.6797 111.8C62.9597 112.84 59.4391 113.359 55.1191 113.359C48.8793 113.359 43.3595 112.079 38.5596 109.52C33.8396 106.88 30.1194 103.04 27.3994 98C24.7594 92.96 23.4395 86.7193 23.4395 79.2793V60.0801C23.4395 55.9935 23.8411 52.269 24.6406 48.9062Z" fill="white"/>
<path d="M56.1992 26C66.1192 26 73.6799 28.7202 78.8799 34.1602C84.0796 39.6001 86.6797 46.8802 86.6797 56V56.5996H76.7197V55.7598C76.7197 51.7599 75.9995 48.2 74.5596 45.0801C73.1196 41.9602 70.8797 39.5198 67.8398 37.7598C64.7998 35.9198 60.9192 35 56.1992 35C51.3221 35 47.1769 36.0321 43.7637 38.0967C41.5145 37.3584 39.1472 36.7249 36.6641 36.1943L32.041 35.0381C32.1336 34.9452 32.2253 34.8513 32.3193 34.7598C38.2393 28.9198 46.1993 26 56.1992 26Z" fill="white"/>
<path d="M30.3604 0C36.0403 1.33481e-05 41.1206 1.00001 45.6006 3C50.1604 4.92 53.7203 7.79977 56.2803 11.6396C58.4825 14.7761 59.7647 18.6086 60.1299 23.1367C58.8454 23.0456 57.5346 23 56.1992 23C54.2825 23 52.2065 23.2441 50.1768 23.6045C49.8986 20.5803 49.0542 18.0721 47.6406 16.0801C45.9607 13.6001 43.6004 11.7596 40.5605 10.5596C37.6006 9.35958 34.2003 8.75978 30.3604 8.75977C24.8404 8.75977 20.4 9.99949 17.04 12.4795C13.6801 14.8795 12 18.3198 12 22.7998C12 25.7598 12.7202 28.16 14.1602 30C15.6001 31.8399 17.6404 33.3596 20.2803 34.5596C22.9202 35.6795 26.08 36.6796 29.7598 37.5596L36 39.1201C40.8799 40.1601 45.2401 41.5995 49.0801 43.4395C53.0001 45.1995 56.1204 47.6398 58.4404 50.7598C60.7604 53.7997 61.9199 57.7998 61.9199 62.7598C61.9199 67.7197 60.6802 72.0397 58.2002 75.7197C55.7203 79.3996 52.2004 82.2794 47.6406 84.3594C44.5737 85.7285 41.1312 86.6277 37.3145 87.0596C36.7919 84.826 36.5195 82.3202 36.5195 79.5195V78.3096C40.8113 77.7468 44.2381 76.3642 46.7998 74.1602C50.2397 71.2002 51.9599 67.4799 51.96 63C51.96 59.88 51.1605 57.3996 49.5605 55.5596C48.0405 53.7196 45.8801 52.2401 43.0801 51.1201C40.2801 49.9201 37.0002 48.88 33.2402 48L27 46.4395C22.1201 45.1595 17.8 43.5997 14.04 41.7598C10.2801 39.9198 7.32013 37.5195 5.16016 34.5596C3.08024 31.5196 2.04007 27.6398 2.04004 22.9199C2.04004 18.1999 3.20051 14.1197 5.52051 10.6797C7.9205 7.23975 11.2405 4.59974 15.4805 2.75977C19.8004 0.919813 24.7604 0 30.3604 0Z" fill="white"/>
<path d="M9.95996 57.96C9.96001 64.9197 12.0002 70.1196 16.0801 73.5596C17.4097 74.6545 18.8635 75.5695 20.4395 76.3076V79.2793C20.4395 81.6146 20.5644 83.857 20.8174 86.0029C18.9587 85.5091 17.1789 84.8844 15.4805 84.1201C10.6805 81.9601 6.88008 78.7194 4.08008 74.3994C1.36023 69.9995 3.78945e-05 64.5197 0 57.96V55.4395H9.95996V57.96Z" fill="white"/>
</svg>
