<svg width="574" height="211" viewBox="0 0 574 211" fill="none" xmlns="http://www.w3.org/2000/svg">
<path d="M63.1858 32.9178C63.4815 29.6655 62.693 27.1194 60.8204 25.2797C58.9479 23.4072 55.7941 22.4709 51.359 22.4709C48.5337 22.4709 46.1684 22.7994 44.263 23.4564C42.3904 24.1135 40.9285 25.0169 39.8772 26.1667C38.8588 27.3166 38.2182 28.6471 37.9553 30.1583C37.6597 31.3409 37.6761 32.4251 38.0046 33.4106C38.366 34.3633 39.0395 35.2339 40.025 36.0224C41.0435 36.8108 42.374 37.5171 44.0166 38.1413C45.692 38.7655 47.6796 39.324 49.9792 39.8168L57.8637 41.5908C63.2515 42.7735 67.7687 44.334 71.4153 46.2722C75.0947 48.1777 77.9857 50.4445 80.0882 53.0726C82.1908 55.7008 83.5706 58.6411 84.2276 61.8934C84.9175 65.1458 84.9339 68.6938 84.2769 72.5375C83.1599 79.1737 80.581 84.7914 76.5402 89.3907C72.4994 93.99 67.2266 97.4887 60.7219 99.8869C54.2172 102.285 46.694 103.484 38.1525 103.484C29.4138 103.484 21.9892 102.187 15.8787 99.5913C9.80107 96.9631 5.39888 92.9551 2.67215 87.5674C-0.0217249 82.1468 -0.678768 75.2314 0.701022 66.8213H26.7199C26.3257 69.9094 26.6542 72.5047 27.7055 74.6072C28.7567 76.7098 30.4486 78.3031 32.7811 79.3872C35.1136 80.4713 38.0211 81.0134 41.5034 81.0134C44.4601 81.0134 46.9897 80.652 49.0922 79.9293C51.1948 79.2065 52.8538 78.2045 54.0693 76.9233C55.2849 75.6421 56.024 74.1801 56.2868 72.5375C56.5497 71.0263 56.2868 69.6794 55.4984 68.4967C54.7099 67.314 53.2809 66.2463 51.2112 65.2936C49.1415 64.3409 46.2998 63.4703 42.6861 62.6819L33.0275 60.5136C24.4531 58.5425 17.9812 55.2902 13.6119 50.7566C9.24258 46.223 7.69853 40.0139 8.97976 32.1294C10.031 25.6904 12.6756 20.0727 16.9136 15.2762C21.1843 10.447 26.6049 6.70183 33.1754 4.04081C39.7786 1.34694 47.0882 0 55.1042 0C63.2515 0 70.0683 1.36336 75.5546 4.09009C81.0738 6.81682 85.0325 10.6441 87.4307 15.5719C89.8617 20.4997 90.5188 26.2817 89.4018 32.9178H63.1858Z" fill="white"/>
<path d="M107.894 102.302H78.3275L128.394 1.37979H165.846L182.403 102.302H152.836L142.981 29.1727H142.192L107.894 102.302ZM126.569 62.4848H147.47L150.233 82.9845H116.954L126.569 62.4848Z" fill="white"/>
<path d="M292.036 1.37979L275.281 102.302H252.416L224.82 49.2782H224.229L215.359 102.302H187.96L204.715 1.37979H227.974L255.176 54.206H255.964L264.637 1.37979H292.036Z" fill="white"/>
<path d="M323.501 102.302H284.078L300.833 1.37979H338.679C349.06 1.37979 357.733 3.4659 364.697 7.63812C371.662 11.8103 376.606 17.773 379.53 25.5261C382.454 33.2792 383.029 42.5107 381.255 53.2205C379.547 63.536 376.081 72.3568 370.857 79.6829C365.667 87.0089 359.03 92.6102 350.949 96.4867C342.9 100.363 333.751 102.302 323.501 102.302ZM315.321 79.0423H325.275C330.268 79.0423 334.72 78.1717 338.629 76.4305C342.572 74.6565 345.857 71.6998 348.485 67.5604C351.146 63.3882 353.068 57.6884 354.25 50.4609C355.367 43.6276 355.335 38.3549 354.152 34.6426C352.969 30.8974 350.719 28.3021 347.401 26.8566C344.083 25.3783 339.796 24.6391 334.539 24.6391H324.388L315.321 79.0423Z" fill="white"/>
<path d="M381.687 102.302L398.442 1.37979H442.004C449.494 1.37979 455.818 2.74315 460.976 5.46988C466.134 8.19661 469.846 12.1224 472.113 17.2474C474.379 22.3723 474.922 28.5157 473.739 35.6774C472.556 42.9049 469.944 48.999 465.904 53.9596C461.896 58.8875 456.787 62.6326 450.578 65.1951C444.402 67.7247 437.47 68.9895 429.783 68.9895H414.652L418.209 47.7013H427.812C431.031 47.7013 433.856 47.3071 436.287 46.5186C438.718 45.6973 440.69 44.4161 442.201 42.6749C443.712 40.9009 444.698 38.5684 445.157 35.6774C445.617 32.7864 445.387 30.4375 444.468 28.6306C443.548 26.7909 442.02 25.444 439.885 24.5898C437.749 23.7028 435.105 23.2593 431.951 23.2593H422.292L409.086 102.302H381.687ZM450.578 65.1951L466.051 102.302H436.287L424.152 68.9895L450.578 65.1951Z" fill="white"/>
<path d="M497.788 102.302H468.221L518.287 1.37979H555.739L572.296 102.302H542.729L532.874 29.1727H532.085L497.788 102.302ZM516.462 62.4848H537.363L540.126 82.9845H506.847L516.462 62.4848Z" fill="white"/>
<path d="M70.1256 141.692C69.9941 139.951 69.6328 138.423 69.0414 137.109C68.4501 135.762 67.6124 134.629 66.5283 133.709C65.4441 132.756 64.0972 132.05 62.4874 131.59C60.9105 131.097 59.0544 130.851 56.919 130.851C52.3197 130.851 48.131 131.951 44.3531 134.152C40.5751 136.353 37.4048 139.524 34.8424 143.663C32.3127 147.802 30.5716 152.796 29.6189 158.644C28.6333 164.557 28.5512 169.616 29.3725 173.821C30.1938 178.026 31.9678 181.246 34.6945 183.48C37.4541 185.714 41.1828 186.831 45.8807 186.831C50.0858 186.831 53.7159 186.223 56.7712 185.007C59.8264 183.792 62.2739 182.067 64.1136 179.833C65.9533 177.599 67.1032 174.971 67.5631 171.949L72.2938 172.441H49.2316L52.3854 152.927H97.13L94.8632 166.922C93.352 176.121 90.0997 183.989 85.1061 190.527C80.1455 197.031 73.9693 202.025 66.5775 205.507C59.1858 208.957 51.0713 210.681 42.2341 210.681C32.4442 210.681 24.1818 208.595 17.4471 204.423C10.7125 200.251 5.89962 194.305 3.00863 186.584C0.150497 178.864 -0.407989 169.682 1.33317 159.038C2.71296 150.693 5.20973 143.302 8.82346 136.863C12.47 130.424 16.9215 124.987 22.1779 120.552C27.4342 116.084 33.2326 112.716 39.5731 110.449C45.9135 108.15 52.484 107 59.2844 107C65.2306 107 70.6348 107.854 75.4969 109.562C80.359 111.238 84.5148 113.636 87.9643 116.757C91.4137 119.845 93.9926 123.508 95.701 127.746C97.4421 131.984 98.1484 136.633 97.8199 141.692H70.1256Z" fill="white"/>
<path d="M172.859 108.38H200.258L189.515 173.033C188.267 180.72 185.343 187.373 180.744 192.99C176.177 198.575 170.363 202.895 163.299 205.951C156.236 208.973 148.384 210.484 139.744 210.484C131.039 210.484 123.68 208.973 117.668 205.951C111.656 202.895 107.286 198.575 104.56 192.99C101.866 187.373 101.143 180.72 102.391 173.033L113.134 108.38H140.533L130.184 170.667C129.692 173.788 129.938 176.564 130.924 178.995C131.909 181.427 133.502 183.348 135.704 184.761C137.905 186.141 140.566 186.831 143.687 186.831C146.84 186.831 149.748 186.141 152.409 184.761C155.103 183.348 157.337 181.427 159.111 178.995C160.885 176.564 162.018 173.788 162.511 170.667L172.859 108.38Z" fill="white"/>
<path d="M236.515 108.38L219.761 209.302H192.362L209.117 108.38H236.515Z" fill="white"/>
<path d="M230.583 209.302L247.337 108.38H274.736L261.726 187.225H302.529L298.784 209.302H230.583Z" fill="white"/>
<path d="M307.696 209.302L324.451 108.38H351.849L338.84 187.225H379.642L375.897 209.302H307.696Z" fill="white"/>
<path d="M386.809 209.302L401.564 108.38H474.298L470.553 130.456H425.217L422.458 147.802H464.049L460.303 169.879H418.713L415.953 187.225H461.092L457.347 209.302H386.809Z" fill="white"/>
<path d="M573.045 108.38L556.29 209.302H533.425L505.829 156.278H505.238L496.368 209.302H468.969L485.724 108.38H508.983L536.185 161.206H536.973L545.646 108.38H573.045Z" fill="white"/>
</svg>
